<svg _ngcontent-Tifos_App-c122="" width="20" height="20" viewBox="0 0 20 20" fill="none" xmlns="http://www.w3.org/2000/svg" class="ng-star-inserted" style="">
<path _ngcontent-Tifos_App-c122="" d="M19.9259 9.76333C19.7684 9.53415 15.9834 4.16656 9.99997 4.16656C4.86571 4.16656 0.290635 9.50333 0.098132 9.73083C-0.0326903 9.88583 -0.0326903 10.1133 0.098132 10.2692C0.290635 10.4967 4.86571 15.8334 9.99997 15.8334C15.1342 15.8334 19.7093 10.4967 19.9018 10.2692C20.0226 10.1258 20.0334 9.91833 19.9259 9.76333ZM9.99997 15.0001C5.88408 15.0001 1.97066 11.075 0.976505 10C1.96902 8.92418 5.87826 4.99994 9.99997 4.99994C14.8159 4.99994 18.2151 8.91918 19.0451 9.97752C18.0867 11.0184 14.1509 15.0001 9.99997 15.0001Z" fill="#8E9CB8"></path><path _ngcontent-Tifos_App-c122="" d="M9.99997 6.6666C8.16162 6.6666 6.6666 8.16162 6.6666 9.99997C6.6666 11.8383 8.16162 13.3333 9.99997 13.3333C11.8383 13.3333 13.3333 11.8383 13.3333 9.99997C13.3333 8.16162 11.8383 6.6666 9.99997 6.6666ZM9.99997 12.5001C8.62163 12.5001 7.49993 11.3784 7.49993 10C7.49993 8.62167 8.62163 7.49997 9.99997 7.49997C11.3783 7.49997 12.5 8.62167 12.5 10C12.5 11.3784 11.3783 12.5001 9.99997 12.5001Z" fill="#8E9CB8"></path></svg>